<mxfile host="app.diagrams.net" modified="2023-09-26T15:18:31.741Z" agent="Mozilla/5.0 (Windows NT 10.0; Win64; x64) AppleWebKit/537.36 (KHTML, like Gecko) Chrome/117.0.0.0 Safari/537.36 Edg/117.0.2045.41" version="21.8.2" etag="Ukh51sym2rL9BrXhsp4e" type="github">
  <diagram name="Страница — 1" id="grPXyDRf5m-aTZqO8MZc">
    <mxGraphModel>
      <root>
        <mxCell id="0" />
        <mxCell id="1" parent="0" />
      </root>
    </mxGraphModel>
  </diagram>
</mxfile>
